<svg id="Layer_1" data-name="Layer 1" xmlns="http://www.w3.org/2000/svg" viewBox="0 0 1023.21 509.7"><path d="M237.3,410a291.5,291.5,0,0,0-19.89,99.32A175.64,175.64,0,0,0,206.74,485C196,464,170,448,150,463,102,496,31,501,0,448c27,13,68,32,84,0,28-55,93-85,143.1-44.25,5.65,3.75,8.69,6.14,8.69,6.14A5,5,0,0,1,237.3,410Z"/><path d="M300.6,312a292.84,292.84,0,0,0-60.85,92,5.13,5.13,0,0,1-.69-.56s-7.93-5.87-28.88-12.34C156,375,141,320,131,268c-6-26-35-30-56-42-2-2,9-5,14-5,31-4,62,6,84,29,13,14,18,32,30,47,17,21,46,27,70.18,19.49,16.38-5,25.86-5.41,25.86-5.41A5.37,5.37,0,0,1,300.6,312Z"/><path d="M396.35,246.61a293.05,293.05,0,0,0-91.87,61.45,5.48,5.48,0,0,1-.88-1.39s1.88-9.31,8.82-25.25C321,264,318,241,304,229c-21-20-53-17-74-39-25-26-40-72-21-103,0,32,14,78,49,70,62-14,128,10,134.87,76.44,1.29,6.89,1.86,10.62,1.86,10.62A5.48,5.48,0,0,1,396.35,246.61Z"/><path d="M510.07,223.69A292.08,292.08,0,0,0,401.7,244.42a5.5,5.5,0,0,1-.65-2.57s-.72-9.6-8.53-28.26C382,188,380,159,390,132c15-42,46-87,15-130,24-2,37,29,46,47,14,26,9,56,5,84-3,28,11,55,33,71.71,13.06,9.74,20.57,16.07,20.57,16.07A5.44,5.44,0,0,1,510.07,223.69Z"/><path d="M625.75,242.45a8.57,8.57,0,0,1-2.15,4.06,291.44,291.44,0,0,0-106.2-22.73A16.34,16.34,0,0,1,519,222c30-4,67-28,54-61-12-29-35-54-28-88,7-33,32-67,65-73-21,22-51,57-23,85,16,17,39,23,53,43C665,166,652,211,625.75,242.45Z"/><path d="M781,185c-46,26-82,72-60,124.46a5.32,5.32,0,0,1-1.59,2.3,293.21,293.21,0,0,0-90.27-62.85,5.48,5.48,0,0,1,1.6-3.11s6.73-6.57,14.92-26.06C664,170,716,152,764,138c24-7,36-30,42-54,1-6,7,2,7,4C821,125,814,167,781,185Z"/><path d="M888,263c3,65-32,125-97,139.83a31.46,31.46,0,0,0-6,4.38,5.41,5.41,0,0,1-2.55,1.54,292.6,292.6,0,0,0-56.89-90.55A17.76,17.76,0,0,1,726,315c28,17,75,21,90-11,17-37,33-86,80-88,16-1,41-8,50,9C921,225,887,236,888,263Z"/><path d="M980,455c-31,16-66,5-99,6-23,0-45,12-58.57,30.78-8.88,12.24-16.23,17.49-16.23,17.49a5.36,5.36,0,0,1-3.4.27,291.44,291.44,0,0,0-18.64-96.32,5.48,5.48,0,0,1,2.6-.7S797,407,814.38,399.8C857,380,902,400,942,423c25,15,56,9,81-6C1026,437,996,447,980,455Z"/></svg>