<svg id="Layer_1" data-name="Layer 1" xmlns="http://www.w3.org/2000/svg" viewBox="0 0 1080 1080"><defs><style>.cls-1{fill:#1b3d1a;}</style></defs><path class="cls-1" d="M554.21,491c-60.19,192.08-17.85,437.86-4,506.54a14.76,14.76,0,0,1-15.63,17.68C365.27,1000.28,231.08,793.14,231.08,539.8c0-257.42,138.52-467.13,311.69-476a14.76,14.76,0,0,1,14.86,10.57C570.89,119.15,615.22,296.28,554.21,491Z"/><path class="cls-1" d="M909.11,539.8c0,256.86-138,466.23-310.63,475.92A14.7,14.7,0,0,1,583.33,1004c-12.18-58.17-59.62-314.3,2.64-513,57.57-183.7,21.36-351.76,5.95-407.78a14.83,14.83,0,0,1,15.83-18.65C776.06,81.07,909.11,287.52,909.11,539.8Z"/></svg>