<svg id="Layer_1" data-name="Layer 1" xmlns="http://www.w3.org/2000/svg" viewBox="0 0 1080 1080"><path d="M524.12,491.71c-60.2,192.08-17.86,437.86-4,506.54a14.76,14.76,0,0,1-15.63,17.68C335.18,1001,201,793.86,201,540.52c0-257.42,138.53-467.13,311.7-476a14.76,14.76,0,0,1,14.86,10.57C540.8,119.87,585.13,297,524.12,491.71Z"/><path d="M879,540.52c0,256.86-138,466.24-310.63,475.92a14.72,14.72,0,0,1-15.16-11.75c-12.17-58.16-59.61-314.3,2.65-513C613.45,308,577.24,140,561.82,83.93a14.84,14.84,0,0,1,15.84-18.65C746,81.79,879,288.24,879,540.52Z"/></svg>