<svg id="Layer_1" data-name="Layer 1" xmlns="http://www.w3.org/2000/svg" viewBox="0 0 1080 1080"><defs><style>.cls-1,.cls-2{fill:#fff;}.cls-2{font-size:105.65px;font-family:Blenny-Black, Blenny;font-weight:800;}</style></defs><path class="cls-1" d="M264.2,513.36a291.5,291.5,0,0,0-19.89,99.32,175.64,175.64,0,0,0-10.67-24.29c-10.74-21-36.74-37-56.74-22-48,33-119,38-150-15,27,13,68,32,84,0,28-55,93-85,143.1-44.25,5.65,3.75,8.69,6.14,8.69,6.14A5,5,0,0,1,264.2,513.36Z"/><path class="cls-1" d="M327.5,415.35a292.84,292.84,0,0,0-60.85,92,5.13,5.13,0,0,1-.69-.56s-7.93-5.87-28.88-12.34c-54.18-16-69.18-71-79.18-123-6-26-35-30-56-42-2-2,9-5,14-5,31-4,62,6,84,29,13,14,18,32,30,47,17,21,46,27,70.18,19.49,16.38-5,25.86-5.41,25.86-5.41A5.37,5.37,0,0,1,327.5,415.35Z"/><path class="cls-1" d="M423.25,350a293.05,293.05,0,0,0-91.87,61.45,5.48,5.48,0,0,1-.88-1.39s1.88-9.31,8.82-25.25c8.58-17.42,5.58-40.42-8.42-52.42-21-20-53-17-74-39-25-26-40-72-21-103,0,32,14,78,49,70,62-14,128,10,134.87,76.44,1.29,6.89,1.86,10.62,1.86,10.62A5.48,5.48,0,0,1,423.25,350Z"/><path class="cls-1" d="M537,327.09A292.08,292.08,0,0,0,428.6,347.82a5.5,5.5,0,0,1-.65-2.57s-.72-9.6-8.53-28.26C408.9,291.4,406.9,262.4,416.9,235.4c15-42,46-87,15-130,24-2,37,29,46,47,14,26,9,56,5,84-3,28,11,55,33,71.71,13.06,9.74,20.57,16.07,20.57,16.07A5.44,5.44,0,0,1,537,327.09Z"/><path class="cls-1" d="M652.65,345.85a8.57,8.57,0,0,1-2.15,4.06,291.44,291.44,0,0,0-106.2-22.73,16.34,16.34,0,0,1,1.6-1.78c30-4,67-28,54-61-12-29-35-54-28-88,7-33,32-67,65-73-21,22-51,57-23,85,16,17,39,23,53,43C691.9,269.4,678.9,314.4,652.65,345.85Z"/><path class="cls-1" d="M807.9,288.4c-46,26-82,72-60,124.46a5.32,5.32,0,0,1-1.59,2.3,293.21,293.21,0,0,0-90.27-62.85,5.48,5.48,0,0,1,1.6-3.11s6.73-6.57,14.92-26.06C690.9,273.4,742.9,255.4,790.9,241.4c24-7,36-30,42-54,1-6,7,2,7,4C847.9,228.4,840.9,270.4,807.9,288.4Z"/><path class="cls-1" d="M914.9,366.4c3,65-32,125-97,139.83a31.46,31.46,0,0,0-6,4.38,5.41,5.41,0,0,1-2.55,1.54,292.6,292.6,0,0,0-56.89-90.55,17.76,17.76,0,0,1,.46-3.2c28,17,75,21,90-11,17-37,33-86,80-88,16-1,41-8,50,9C947.9,328.4,913.9,339.4,914.9,366.4Z"/><path class="cls-1" d="M1006.9,558.4c-31,16-66,5-99,6-23,0-45,12-58.57,30.78-8.88,12.24-16.23,17.49-16.23,17.49a5.36,5.36,0,0,1-3.4.27,291.44,291.44,0,0,0-18.64-96.32,5.48,5.48,0,0,1,2.6-.7s10.28-5.52,27.62-12.72c42.62-19.8,87.62.2,127.62,23.2,25,15,56,9,81-6C1052.9,540.4,1022.9,550.4,1006.9,558.4Z"/><text class="cls-2" transform="translate(293.58 692.87) rotate(19.24) scale(0.55 1)">S</text><text class="cls-2" transform="translate(333.07 706.48) rotate(15.08) scale(0.55 1)">u</text><text class="cls-2" transform="translate(372.23 716.89) rotate(11.32) scale(0.55 1)">n</text><text class="cls-2" transform="translate(409.88 724.3) rotate(7.9) scale(0.55 1)">s</text><text class="cls-2" transform="translate(444.82 729.08) rotate(4.61) scale(0.55 1)">e</text><text class="cls-2" transform="translate(480.69 731.79) rotate(1.84) scale(0.55 1)">t</text><text class="cls-2" transform="matrix(0.55, 0, 0, 1, 504.69, 732.46)"> </text><text class="cls-2" transform="translate(519.45 732.73) rotate(-2.37) scale(0.55 1)">E</text><text class="cls-2" transform="translate(560.75 730.85) rotate(-5.78) scale(0.55 1)">s</text><text class="cls-2" transform="matrix(0.54, -0.09, 0.16, 0.99, 595.76, 727.27)">p</text><text class="cls-2" transform="translate(633.36 721.17) rotate(-11.97) scale(0.55 1)">r</text><text class="cls-2" transform="translate(664.04 714.67) rotate(-14.78) scale(0.55 1)">e</text><text class="cls-2" transform="translate(698.87 705.4) rotate(-17.67) scale(0.55 1)">s</text><text class="cls-2" transform="translate(732.01 694.79) rotate(-20.4) scale(0.55 1)">s</text><text class="cls-2" transform="matrix(0.51, -0.22, 0.39, 0.92, 764.65, 682.63)">o</text><text class="cls-2" transform="translate(799.98 662.55) rotate(90) scale(0.55 1)"> </text><text/></svg>