<svg id="Layer_1" data-name="Layer 1" xmlns="http://www.w3.org/2000/svg" viewBox="0 0 1080 1080"><defs><style>.cls-1{fill:#4a3832;}</style></defs><path class="cls-1" d="M535.91,491.35c-60.19,192.08-17.85,437.87-4,506.54a14.74,14.74,0,0,1-15.62,17.68C347,1000.64,212.78,793.5,212.78,540.16c0-257.42,138.53-467.13,311.7-476a14.75,14.75,0,0,1,14.85,10.57C552.59,119.51,596.93,296.64,535.91,491.35Z"/><path class="cls-1" d="M890.81,540.16c0,256.86-137.95,466.24-310.62,475.93A14.74,14.74,0,0,1,565,1004.33c-12.18-58.16-59.61-314.3,2.65-513,57.56-183.7,21.35-351.76,5.94-407.78a14.83,14.83,0,0,1,15.83-18.65C757.76,81.43,890.81,287.89,890.81,540.16Z"/></svg>