<svg id="Layer_1" data-name="Layer 1" xmlns="http://www.w3.org/2000/svg" viewBox="0 0 1080 1080"><defs><style>.cls-1{fill:#967a54;}</style></defs><path class="cls-1" d="M499.24,490.75c-60.2,192.08-17.86,437.87-4,506.54A14.75,14.75,0,0,1,479.64,1015C310.3,1000,176.1,792.9,176.1,539.56c0-257.42,138.53-467.13,311.7-476a14.76,14.76,0,0,1,14.86,10.57C515.92,118.91,560.25,296,499.24,490.75Z"/><path class="cls-1" d="M854.13,539.56c0,256.86-138,466.24-310.62,475.93a14.74,14.74,0,0,1-15.16-11.76c-12.17-58.16-59.61-314.3,2.65-513C588.56,307.05,552.35,139,536.94,83a14.84,14.84,0,0,1,15.83-18.65C721.08,80.83,854.13,287.29,854.13,539.56Z"/></svg>