<svg id="Layer_1" data-name="Layer 1" xmlns="http://www.w3.org/2000/svg" viewBox="0 0 1080 1080"><path d="M265.7,593.82a291.5,291.5,0,0,0-19.89,99.32,175.64,175.64,0,0,0-10.67-24.29c-10.74-21-36.74-37-56.74-22-48,33-119,38-150-15,27,13,68,32,84,0,28-55,93-85,143.1-44.25,5.65,3.75,8.69,6.14,8.69,6.14A5,5,0,0,1,265.7,593.82Z"/><path d="M329,495.81a292.84,292.84,0,0,0-60.85,92,5.13,5.13,0,0,1-.69-.56s-7.93-5.87-28.88-12.34c-54.18-16-69.18-71-79.18-123-6-26-35-30-56-42-2-2,9-5,14-5,31-4,62,6,84,29,13,14,18,32,30,47,17,21,46,27,70.18,19.49,16.38-5,25.86-5.41,25.86-5.41A5.37,5.37,0,0,1,329,495.81Z"/><path d="M424.75,430.47a293.05,293.05,0,0,0-91.87,61.45,5.48,5.48,0,0,1-.88-1.39s1.88-9.31,8.82-25.25c8.58-17.42,5.58-40.42-8.42-52.42-21-20-53-17-74-39-25-26-40-72-21-103,0,32,14,78,49,70,62-14,128,10,134.87,76.44,1.29,6.89,1.86,10.62,1.86,10.62A5.48,5.48,0,0,1,424.75,430.47Z"/><path d="M538.47,407.55A292.08,292.08,0,0,0,430.1,428.28a5.5,5.5,0,0,1-.65-2.57s-.72-9.6-8.53-28.26c-10.52-25.59-12.52-54.59-2.52-81.59,15-42,46-87,15-130,24-2,37,29,46,47,14,26,9,56,5,84-3,28,11,55,33,71.71,13.06,9.74,20.57,16.07,20.57,16.07A5.44,5.44,0,0,1,538.47,407.55Z"/><path d="M654.15,426.31a8.57,8.57,0,0,1-2.15,4.06,291.44,291.44,0,0,0-106.2-22.73,16.34,16.34,0,0,1,1.6-1.78c30-4,67-28,54-61-12-29-35-54-28-88,7-33,32-67,65-73-21,22-51,57-23,85,16,17,39,23,53,43C693.4,349.86,680.4,394.86,654.15,426.31Z"/><path d="M809.4,368.86c-46,26-82,72-60,124.46a5.32,5.32,0,0,1-1.59,2.3,293.21,293.21,0,0,0-90.27-62.85,5.48,5.48,0,0,1,1.6-3.11s6.73-6.57,14.92-26.06c18.32-49.74,70.32-67.74,118.32-81.74,24-7,36-30,42-54,1-6,7,2,7,4C849.4,308.86,842.4,350.86,809.4,368.86Z"/><path d="M916.4,446.86c3,65-32,125-97,139.83a31.46,31.46,0,0,0-6,4.38,5.41,5.41,0,0,1-2.55,1.54,292.6,292.6,0,0,0-56.89-90.55,17.76,17.76,0,0,1,.46-3.2c28,17,75,21,90-11,17-37,33-86,80-88,16-1,41-8,50,9C949.4,408.86,915.4,419.86,916.4,446.86Z"/><path d="M1008.4,638.86c-31,16-66,5-99,6-23,0-45,12-58.57,30.78-8.88,12.24-16.23,17.49-16.23,17.49a5.36,5.36,0,0,1-3.4.27,291.44,291.44,0,0,0-18.64-96.32,5.48,5.48,0,0,1,2.6-.7s10.28-5.52,27.62-12.72c42.62-19.8,87.62.2,127.62,23.2,25,15,56,9,81-6C1054.4,620.86,1024.4,630.86,1008.4,638.86Z"/><text/></svg>